<mxfile host="app.diagrams.net" modified="2023-02-16T15:37:48.260Z" agent="5.0 (Windows NT 10.0; Win64; x64) AppleWebKit/537.36 (KHTML, like Gecko) Chrome/109.0.0.0 Safari/537.36" etag="-VY2db7zobT8YlM8LuqK" version="20.8.11" type="github">
  <diagram name="Page-1" id="822b0af5-4adb-64df-f703-e8dfc1f81529">
    <mxGraphModel dx="-50" dy="533" grid="1" gridSize="10" guides="1" tooltips="1" connect="1" arrows="1" fold="1" page="1" pageScale="1" pageWidth="1100" pageHeight="850" background="none" math="0" shadow="0">
      <root>
        <mxCell id="0" />
        <mxCell id="1" parent="0" />
        <mxCell id="Kikc22jjKgJuS9xeLuYs-15" value="" style="ellipse;whiteSpace=wrap;html=1;fillStyle=dashed;strokeColor=#3399FF;fontColor=#1A1A1A;fillColor=#3399FF;gradientColor=none;opacity=30;" parent="1" vertex="1">
          <mxGeometry x="1600" y="180" width="400" height="225" as="geometry" />
        </mxCell>
        <mxCell id="Kikc22jjKgJuS9xeLuYs-14" value="" style="ellipse;whiteSpace=wrap;html=1;fillStyle=dashed;strokeColor=#FF0000;fontColor=#1A1A1A;fillColor=#FF0000;gradientColor=none;opacity=20;" parent="1" vertex="1">
          <mxGeometry x="1240" y="180" width="440" height="225" as="geometry" />
        </mxCell>
        <mxCell id="Kikc22jjKgJuS9xeLuYs-2" value="" style="points=[];aspect=fixed;html=1;align=center;shadow=0;dashed=0;image;image=img/lib/allied_telesis/computer_and_terminals/Personal_Computer_with_Server.svg;labelBackgroundColor=none;fillColor=#F5AB50;strokeColor=#909090;fontColor=#1A1A1A;" parent="1" vertex="1">
          <mxGeometry x="1560" y="130" width="120" height="120" as="geometry" />
        </mxCell>
        <mxCell id="Kikc22jjKgJuS9xeLuYs-3" value="&lt;font style=&quot;font-size: 13px;&quot;&gt;&lt;b&gt;eNB1&lt;/b&gt;&lt;/font&gt;" style="shape=image;html=1;verticalAlign=top;verticalLabelPosition=bottom;labelBackgroundColor=none;imageAspect=0;aspect=fixed;image=https://cdn2.iconfinder.com/data/icons/circle-icons-1/64/radiotower-128.png;imageBackground=none;fillColor=#F5AB50;strokeColor=#909090;fontColor=#1A1A1A;" parent="1" vertex="1">
          <mxGeometry x="1280" y="260" width="80" height="80" as="geometry" />
        </mxCell>
        <mxCell id="Kikc22jjKgJuS9xeLuYs-4" value="&lt;font style=&quot;font-size: 13px;&quot;&gt;&lt;b&gt;eNB2&lt;/b&gt;&lt;/font&gt;" style="shape=image;html=1;verticalAlign=top;verticalLabelPosition=bottom;labelBackgroundColor=none;imageAspect=0;aspect=fixed;image=https://cdn2.iconfinder.com/data/icons/circle-icons-1/64/radiotower-128.png;fillColor=#F5AB50;strokeColor=#909090;fontColor=#1A1A1A;" parent="1" vertex="1">
          <mxGeometry x="1880" y="260" width="80" height="80" as="geometry" />
        </mxCell>
        <mxCell id="Kikc22jjKgJuS9xeLuYs-6" value="" style="curved=1;endArrow=classic;html=1;rounded=0;labelBackgroundColor=none;strokeColor=#182E3E;fontColor=default;" parent="1" source="Kikc22jjKgJuS9xeLuYs-2" target="Kikc22jjKgJuS9xeLuYs-3" edge="1">
          <mxGeometry width="50" height="50" relative="1" as="geometry">
            <mxPoint x="1430" y="260" as="sourcePoint" />
            <mxPoint x="1480" y="210" as="targetPoint" />
            <Array as="points">
              <mxPoint x="1480" y="260" />
              <mxPoint x="1430" y="210" />
            </Array>
          </mxGeometry>
        </mxCell>
        <mxCell id="Kikc22jjKgJuS9xeLuYs-9" value="" style="curved=1;endArrow=classic;html=1;rounded=0;labelBackgroundColor=none;strokeColor=#182E3E;fontColor=default;" parent="1" source="Kikc22jjKgJuS9xeLuYs-2" target="Kikc22jjKgJuS9xeLuYs-4" edge="1">
          <mxGeometry width="50" height="50" relative="1" as="geometry">
            <mxPoint x="1720" y="200" as="sourcePoint" />
            <mxPoint x="1770" y="150" as="targetPoint" />
            <Array as="points">
              <mxPoint x="1770" y="200" />
              <mxPoint x="1780" y="260" />
            </Array>
          </mxGeometry>
        </mxCell>
        <mxCell id="Kikc22jjKgJuS9xeLuYs-10" value="" style="endArrow=none;dashed=1;html=1;rounded=0;strokeWidth=2;fontSize=12;strokeColor=#182E3E;labelBackgroundColor=none;fontColor=default;" parent="1" edge="1">
          <mxGeometry width="50" height="50" relative="1" as="geometry">
            <mxPoint x="1320" y="430" as="sourcePoint" />
            <mxPoint x="1920" y="430" as="targetPoint" />
          </mxGeometry>
        </mxCell>
        <mxCell id="Kikc22jjKgJuS9xeLuYs-11" value="2.5 meter" style="edgeLabel;html=1;align=center;verticalAlign=middle;resizable=0;points=[];fontSize=13;labelBorderColor=none;fontColor=#1A1A1A;labelBackgroundColor=none;" parent="Kikc22jjKgJuS9xeLuYs-10" vertex="1" connectable="0">
          <mxGeometry x="0.1136" y="-1" relative="1" as="geometry">
            <mxPoint x="-18" y="19" as="offset" />
          </mxGeometry>
        </mxCell>
        <mxCell id="Kikc22jjKgJuS9xeLuYs-12" value="&lt;b&gt;&lt;font style=&quot;font-size: 13px;&quot;&gt;UE&lt;/font&gt;&lt;/b&gt;" style="verticalLabelPosition=bottom;verticalAlign=top;html=1;shadow=0;dashed=0;strokeWidth=1;shape=mxgraph.android.phone2;strokeColor=#1A1A1A;fontColor=#1A1A1A;fillColor=#00FF00;" parent="1" vertex="1">
          <mxGeometry x="1390" y="320" width="30" height="50" as="geometry" />
        </mxCell>
        <mxCell id="Kikc22jjKgJuS9xeLuYs-16" value="" style="shape=flexArrow;endArrow=classic;html=1;rounded=0;strokeColor=#182E3E;strokeWidth=2;fontColor=#1A1A1A;" parent="1" edge="1">
          <mxGeometry width="50" height="50" relative="1" as="geometry">
            <mxPoint x="1467" y="344.57" as="sourcePoint" />
            <mxPoint x="1847" y="344.57" as="targetPoint" />
          </mxGeometry>
        </mxCell>
        <mxCell id="Kikc22jjKgJuS9xeLuYs-17" value="&lt;font style=&quot;font-size: 13px;&quot;&gt;UE di geser ke eNB 2&lt;/font&gt;" style="edgeLabel;html=1;align=center;verticalAlign=middle;resizable=0;points=[];fontColor=#1A1A1A;" parent="Kikc22jjKgJuS9xeLuYs-16" vertex="1" connectable="0">
          <mxGeometry x="0.3508" y="1" relative="1" as="geometry">
            <mxPoint x="-67" y="26" as="offset" />
          </mxGeometry>
        </mxCell>
        <mxCell id="zQAd7WFohsTG7v5_ByC_-1" value="&lt;font style=&quot;font-size: 16px;&quot;&gt;Core Open5GS &lt;br&gt;(Public IP 10.45.0.1)&lt;br&gt;(MME Local IP 127.0.0.2)&lt;br&gt;&lt;/font&gt;" style="text;html=1;strokeColor=none;fillColor=none;align=center;verticalAlign=middle;whiteSpace=wrap;rounded=0;" vertex="1" parent="1">
          <mxGeometry x="1360" y="130" width="200" height="50" as="geometry" />
        </mxCell>
        <mxCell id="zQAd7WFohsTG7v5_ByC_-2" value="&lt;font style=&quot;font-size: 17px;&quot;&gt;eNB1 local IP 127.0.1.1&lt;/font&gt;" style="text;html=1;strokeColor=none;fillColor=none;align=center;verticalAlign=middle;whiteSpace=wrap;rounded=0;" vertex="1" parent="1">
          <mxGeometry x="1230" y="210" width="140" height="50" as="geometry" />
        </mxCell>
        <mxCell id="zQAd7WFohsTG7v5_ByC_-3" value="&lt;font style=&quot;font-size: 17px;&quot;&gt;eNB2 local IP 127.0.1.2&lt;/font&gt;" style="text;html=1;strokeColor=none;fillColor=none;align=center;verticalAlign=middle;whiteSpace=wrap;rounded=0;" vertex="1" parent="1">
          <mxGeometry x="1857.5" y="210" width="125" height="50" as="geometry" />
        </mxCell>
        <mxCell id="zQAd7WFohsTG7v5_ByC_-4" value="&lt;font style=&quot;font-size: 16px;&quot;&gt;(Public IP 10.45.0.2)&lt;/font&gt;" style="text;html=1;strokeColor=none;fillColor=none;align=center;verticalAlign=middle;whiteSpace=wrap;rounded=0;" vertex="1" parent="1">
          <mxGeometry x="1327.5" y="395" width="155" height="30" as="geometry" />
        </mxCell>
      </root>
    </mxGraphModel>
  </diagram>
</mxfile>
